<svg xmlns="http://www.w3.org/2000/svg" xmlns:xlink="http://www.w3.org/1999/xlink" width="200" zoomAndPan="magnify" viewBox="0 0 150 149.999998" height="200" preserveAspectRatio="xMidYMid meet" version="1.0"><defs><filter x="0%" y="0%" width="100%" height="100%" id="id1"><feColorMatrix values="0 0 0 0 1 0 0 0 0 1 0 0 0 0 1 0 0 0 1 0" color-interpolation-filters="sRGB"/></filter><clipPath id="id2"><path d="M 39.453125 60 L 110.703125 60 L 110.703125 98 L 39.453125 98 Z M 39.453125 60 " clip-rule="nonzero"/></clipPath><mask id="id3"><g filter="url(#id1)"><rect x="-15" width="180" fill="rgb(0%, 0%, 0%)" y="-15" height="179.999997" fill-opacity="0.6"/></g></mask><clipPath id="id4"><path d="M 0.785156 0.117188 L 71.378906 0.117188 L 71.378906 36.972656 L 0.785156 36.972656 Z M 0.785156 0.117188 " clip-rule="nonzero"/></clipPath><clipPath id="id5"><rect x="0" width="72" y="0" height="38"/></clipPath><clipPath id="id6"><path d="M 39.453125 17.664062 L 76 17.664062 L 76 98 L 39.453125 98 Z M 39.453125 17.664062 " clip-rule="nonzero"/></clipPath><mask id="id7"><g filter="url(#id1)"><rect x="-15" width="180" fill="rgb(0%, 0%, 0%)" y="-15" height="179.999997" fill-opacity="0.4471"/></g></mask><clipPath id="id8"><path d="M 0.785156 0.664062 L 36.089844 0.664062 L 36.089844 79.972656 L 0.785156 79.972656 Z M 0.785156 0.664062 " clip-rule="nonzero"/></clipPath><clipPath id="id9"><rect x="0" width="37" y="0" height="81"/></clipPath><clipPath id="id10"><path d="M 74 17.664062 L 110.703125 17.664062 L 110.703125 98 L 74 98 Z M 74 17.664062 " clip-rule="nonzero"/></clipPath><mask id="id11"><g filter="url(#id1)"><rect x="-15" width="180" fill="rgb(0%, 0%, 0%)" y="-15" height="179.999997" fill-opacity="0.8"/></g></mask><clipPath id="id12"><path d="M 1.089844 0.664062 L 36.394531 0.664062 L 36.394531 79.972656 L 1.089844 79.972656 Z M 1.089844 0.664062 " clip-rule="nonzero"/></clipPath><clipPath id="id13"><rect x="0" width="37" y="0" height="81"/></clipPath><clipPath id="id14"><path d="M 39.453125 82 L 76 82 L 76 132.414062 L 39.453125 132.414062 Z M 39.453125 82 " clip-rule="nonzero"/></clipPath><mask id="id15"><g filter="url(#id1)"><rect x="-15" width="180" fill="rgb(0%, 0%, 0%)" y="-15" height="179.999997" fill-opacity="0.4471"/></g></mask><clipPath id="id16"><path d="M 0.785156 0.828125 L 36.089844 0.828125 L 36.089844 50.414062 L 0.785156 50.414062 Z M 0.785156 0.828125 " clip-rule="nonzero"/></clipPath><clipPath id="id17"><rect x="0" width="37" y="0" height="51"/></clipPath><clipPath id="id18"><path d="M 74 82 L 110.703125 82 L 110.703125 132.414062 L 74 132.414062 Z M 74 82 " clip-rule="nonzero"/></clipPath><mask id="id19"><g filter="url(#id1)"><rect x="-15" width="180" fill="rgb(0%, 0%, 0%)" y="-15" height="179.999997" fill-opacity="0.8"/></g></mask><clipPath id="id20"><path d="M 1.089844 0.828125 L 36.410156 0.828125 L 36.410156 50.414062 L 1.089844 50.414062 Z M 1.089844 0.828125 " clip-rule="nonzero"/></clipPath><clipPath id="id21"><rect x="0" width="37" y="0" height="51"/></clipPath></defs><g clip-path="url(#id2)"><g mask="url(#id3)"><g transform="matrix(1, 0, 0, 1, 39, 60)"><g clip-path="url(#id5)"><g clip-path="url(#id4)"><path fill="rgb(15.689087%, 19.219971%, 30.589294%)" d="M 36.089844 0.117188 L 0.785156 16.148438 L 36.089844 36.972656 L 71.378906 16.148438 Z M 36.089844 0.117188 " fill-opacity="1" fill-rule="nonzero"/></g></g></g></g></g><g clip-path="url(#id6)"><g mask="url(#id7)"><g transform="matrix(1, 0, 0, 1, 39, 17)"><g clip-path="url(#id9)"><g clip-path="url(#id8)"><path fill="rgb(15.689087%, 19.219971%, 30.589294%)" d="M 0.785156 59.148438 L 36.089844 79.972656 L 36.089844 0.664062 Z M 0.785156 59.148438 " fill-opacity="1" fill-rule="nonzero"/></g></g></g></g></g><g clip-path="url(#id10)"><g mask="url(#id11)"><g transform="matrix(1, 0, 0, 1, 74, 17)"><g clip-path="url(#id13)"><g clip-path="url(#id12)"><path fill="rgb(15.689087%, 19.219971%, 30.589294%)" d="M 1.089844 0.664062 L 1.089844 79.972656 L 36.378906 59.148438 Z M 1.089844 0.664062 " fill-opacity="1" fill-rule="nonzero"/></g></g></g></g></g><g clip-path="url(#id14)"><g mask="url(#id15)"><g transform="matrix(1, 0, 0, 1, 39, 82)"><g clip-path="url(#id17)"><g clip-path="url(#id16)"><path fill="rgb(15.689087%, 19.219971%, 30.589294%)" d="M 0.785156 0.828125 L 36.089844 50.484375 L 36.089844 21.652344 Z M 0.785156 0.828125 " fill-opacity="1" fill-rule="nonzero"/></g></g></g></g></g><g clip-path="url(#id18)"><g mask="url(#id19)"><g transform="matrix(1, 0, 0, 1, 74, 82)"><g clip-path="url(#id21)"><g clip-path="url(#id20)"><path fill="rgb(15.689087%, 19.219971%, 30.589294%)" d="M 1.089844 21.652344 L 1.089844 50.484375 L 36.410156 0.828125 Z M 1.089844 21.652344 " fill-opacity="1" fill-rule="nonzero"/></g></g></g></g></g></svg>