<svg xmlns="http://www.w3.org/2000/svg" xmlns:xlink="http://www.w3.org/1999/xlink" width="200" zoomAndPan="magnify" viewBox="0 0 150 149.999998" height="200" preserveAspectRatio="xMidYMid meet" version="1.0"><defs><clipPath id="id1"><path d="M 10.765625 10.765625 L 139.015625 10.765625 L 139.015625 139.015625 L 10.765625 139.015625 Z M 10.765625 10.765625 " clip-rule="nonzero"/></clipPath></defs><g clip-path="url(#id1)"><path fill="rgb(15.689087%, 19.219971%, 30.589294%)" d="M 74.890625 10.765625 C 39.535156 10.765625 10.765625 39.535156 10.765625 74.890625 C 10.765625 110.25 39.535156 139.015625 74.890625 139.015625 C 110.25 139.015625 139.015625 110.25 139.015625 74.890625 C 139.015625 39.535156 110.25 10.765625 74.890625 10.765625 Z M 74.890625 20.632812 C 104.808594 20.632812 129.152344 44.972656 129.152344 74.890625 C 129.152344 80.027344 128.378906 84.976562 127.039062 89.6875 L 104.488281 89.6875 L 104.488281 50.113281 L 74.890625 81.113281 L 45.296875 50.113281 L 45.296875 89.6875 L 22.742188 89.6875 C 21.402344 84.976562 20.632812 80.027344 20.632812 74.890625 C 20.632812 44.972656 44.972656 20.632812 74.890625 20.632812 Z M 55.160156 74.738281 L 74.890625 95.394531 L 94.621094 74.738281 L 94.621094 99.554688 L 123.160156 99.554688 C 114.15625 117.09375 95.921875 129.152344 74.890625 129.152344 C 53.859375 129.152344 35.625 117.09375 26.625 99.554688 L 55.160156 99.554688 Z M 55.160156 74.738281 " fill-opacity="1" fill-rule="nonzero"/></g></svg>