<svg xmlns="http://www.w3.org/2000/svg" xmlns:xlink="http://www.w3.org/1999/xlink" width="200" zoomAndPan="magnify" viewBox="0 0 150 149.999998" height="200" preserveAspectRatio="xMidYMid meet" version="1.0"><defs><clipPath id="id1"><path d="M 14 9 L 136 9 L 136 141 L 14 141 Z M 14 9 " clip-rule="nonzero"/></clipPath><clipPath id="id2"><path d="M 121.390625 89.476562 C 116.75 86.796875 111.53125 86.027344 106.355469 85.84375 C 102.019531 85.691406 95.539062 82.90625 95.539062 75 C 95.539062 69.113281 100.308594 64.375 106.355469 64.160156 C 111.527344 63.976562 116.757812 63.199219 121.390625 60.527344 C 132.894531 53.871094 137.984375 39.902344 133.4375 27.394531 C 128.890625 14.890625 116.023438 7.457031 102.9375 9.765625 C 89.847656 12.074219 80.292969 23.464844 80.292969 36.777344 C 80.292969 42.09375 82.179688 46.980469 84.585938 51.519531 C 86.617188 55.339844 87.640625 62.410156 80.691406 66.425781 C 75.523438 69.414062 69.074219 67.523438 65.851562 62.359375 C 63.128906 58 59.84375 53.921875 55.242188 51.253906 C 43.734375 44.601562 29.101562 47.1875 20.5625 57.378906 C 12.019531 67.566406 12.007812 82.4375 20.5625 92.632812 C 29.113281 102.828125 43.730469 105.410156 55.242188 98.753906 C 59.839844 96.09375 63.117188 92.015625 65.84375 87.65625 C 68.078125 84.082031 73.660156 79.523438 80.683594 83.589844 C 85.855469 86.578125 87.441406 93.113281 84.582031 98.496094 C 82.179688 103.03125 80.285156 107.921875 80.285156 113.230469 C 80.285156 126.539062 89.824219 137.933594 102.929688 140.238281 C 116.035156 142.542969 128.882812 135.125 133.433594 122.609375 C 137.980469 110.089844 132.902344 96.132812 121.390625 89.476562 Z M 121.390625 89.476562 " clip-rule="nonzero"/></clipPath></defs><g clip-path="url(#id1)"><g clip-path="url(#id2)"><path fill="rgb(15.699768%, 19.198608%, 30.599976%)" d="M 12.007812 7.5 L 12.007812 142.5 L 137.984375 142.5 L 137.984375 7.5 Z M 12.007812 7.5 " fill-opacity="1" fill-rule="nonzero"/></g></g></svg>