<svg xmlns="http://www.w3.org/2000/svg" xmlns:xlink="http://www.w3.org/1999/xlink" width="200" zoomAndPan="magnify" viewBox="0 0 150 149.999998" height="200" preserveAspectRatio="xMidYMid meet" version="1.0"><defs><clipPath id="id1"><path d="M 7.5 7.5 L 142.5 7.5 L 142.5 142.5 L 7.5 142.5 Z M 7.5 7.5 " clip-rule="nonzero"/></clipPath></defs><g clip-path="url(#id1)"><path fill="rgb(15.689087%, 19.219971%, 30.589294%)" d="M 75 7.5 C 37.722656 7.5 7.5 37.722656 7.5 75 C 7.5 112.277344 37.722656 142.5 75 142.5 C 112.277344 142.5 142.5 112.277344 142.5 75 C 142.5 37.722656 112.277344 7.5 75 7.5 Z M 69.375 35.625 L 80.625 35.625 L 80.625 46.917969 C 91.085938 47.160156 97.335938 52.410156 97.335938 60.90625 C 97.335938 66.867188 92.933594 72.058594 87.160156 72.914062 L 87.160156 73.617188 C 94.609375 74.160156 100.027344 79.78125 100.027344 87.03125 C 100.027344 96.875 92.601562 103.097656 80.625 103.113281 L 80.625 114.375 L 69.375 114.375 L 69.375 103.125 L 55.3125 103.125 L 55.3125 46.875 L 69.375 46.875 Z M 67.089844 55.882812 L 67.089844 70.1875 L 75.933594 70.1875 C 82.289062 70.1875 85.753906 67.582031 85.753906 63.058594 C 85.753906 58.574219 82.523438 55.882812 76.910156 55.882812 Z M 67.089844 78.140625 L 67.089844 94.117188 L 77.570312 94.117188 C 84.355469 94.117188 88.019531 91.269531 88.019531 86.007812 C 88.019531 80.863281 84.230469 78.140625 77.296875 78.140625 Z M 67.089844 78.140625 " fill-opacity="1" fill-rule="nonzero"/></g></svg>