<svg xmlns="http://www.w3.org/2000/svg" xmlns:xlink="http://www.w3.org/1999/xlink" width="200" zoomAndPan="magnify" viewBox="0 0 150 149.999998" height="200" preserveAspectRatio="xMidYMid meet" version="1.0"><defs><clipPath id="id1"><path d="M 7.5 7.5 L 142.5 7.5 L 142.5 142.5 L 7.5 142.5 Z M 7.5 7.5 " clip-rule="nonzero"/></clipPath></defs><g clip-path="url(#id1)"><path fill="rgb(15.689087%, 19.219971%, 30.589294%)" d="M 75 7.5 C 37.777344 7.5 7.5 37.777344 7.5 75 C 7.5 112.222656 37.777344 142.5 75 142.5 C 112.222656 142.5 142.5 112.222656 142.5 75 C 142.5 37.777344 112.222656 7.5 75 7.5 Z M 101.414062 110.21875 L 50.589844 110.21875 L 59.300781 79.113281 L 46.640625 83.632812 C 46.316406 83.75 45.976562 83.804688 45.652344 83.804688 C 44.445312 83.804688 43.316406 83.054688 42.890625 81.855469 C 42.339844 80.328125 43.140625 78.652344 44.667969 78.109375 L 61.234375 72.191406 L 72.171875 33.125 C 72.613281 31.5625 74.25 30.65625 75.789062 31.089844 C 77.351562 31.523438 78.261719 33.148438 77.824219 34.707031 L 68.003906 69.773438 L 85.75 63.433594 C 87.269531 62.882812 88.953125 63.683594 89.496094 65.210938 C 90.046875 66.734375 89.25 68.414062 87.722656 68.957031 L 66.066406 76.691406 L 58.324219 104.347656 L 101.414062 104.347656 C 103.035156 104.347656 104.347656 105.660156 104.347656 107.28125 C 104.347656 108.90625 103.035156 110.21875 101.414062 110.21875 Z M 101.414062 110.21875 " fill-opacity="1" fill-rule="nonzero"/></g></svg>