<svg xmlns="http://www.w3.org/2000/svg" xmlns:xlink="http://www.w3.org/1999/xlink" width="500" zoomAndPan="magnify" viewBox="0 0 375 374.999991" height="500" preserveAspectRatio="xMidYMid meet" version="1.0"><defs><clipPath id="id1"><path d="M 37.5 6.777344 L 337.5 6.777344 L 337.5 368.277344 L 37.5 368.277344 Z M 37.5 6.777344 " clip-rule="nonzero"/></clipPath></defs><g clip-path="url(#id1)"><path fill="rgb(85.879517%, 71.759033%, 51.759338%)" d="M 256.582031 297.152344 C 222.785156 341.378906 188.449219 360.058594 188.109375 360.242188 L 187.339844 360.652344 L 186.582031 360.238281 C 186.234375 360.054688 151.972656 341.371094 118.257812 297.144531 C 87.175781 256.394531 50.121094 184.925781 50.121094 75.957031 L 50.121094 74.90625 L 187.5 14.472656 L 188.152344 14.757812 L 324.867188 74.90625 L 324.867188 75.957031 C 324.867188 184.925781 287.738281 256.394531 256.582031 297.152344 Z M 187.5 6.925781 L 37.515625 69.898438 C 37.515625 291.394531 187.328125 368.125 187.328125 368.125 C 187.328125 368.125 337.484375 291.394531 337.484375 69.898438 L 187.5 6.925781 " fill-opacity="1" fill-rule="nonzero"/></g><path fill="rgb(85.879517%, 71.759033%, 51.759338%)" d="M 187.359375 335.21875 C 187.359375 335.21875 68.234375 271.28125 68.234375 86.734375 L 187.496094 34.261719 L 306.765625 86.734375 C 306.765625 271.28125 187.359375 335.21875 187.359375 335.21875 Z M 187.5 18.007812 L 53.363281 77.015625 C 53.605469 184.40625 90.089844 254.828125 120.722656 295.050781 C 151.242188 335.117188 182.132812 353.949219 187.339844 356.960938 C 192.5625 353.949219 223.523438 335.117188 254.121094 295.050781 C 284.824219 254.828125 321.402344 184.402344 321.636719 77.015625 L 187.5 18.007812 " fill-opacity="1" fill-rule="nonzero"/></svg>